<?xml version="1.0" encoding="utf-8"?>
<!-- Generator: Adobe Illustrator 24.0.0, SVG Export Plug-In . SVG Version: 6.00 Build 0)  -->
<svg version="1.1" id="Capa_1" xmlns="http://www.w3.org/2000/svg" xmlns:xlink="http://www.w3.org/1999/xlink" x="0px" y="0px" width="148px" height="54px" viewBox="0 0 148 54" style="enable-background:new 0 0 148 54;" xml:space="preserve">
<style type="text/css">
	.st0{fill:#3FC8EB;}
</style>
<path class="st0" d="M61.771,44.44c-2.217,0-3.507-1.225-3.507-3.344V3.372l-4.402-2.549L49.46,3.372v38.121  c0,6.752,4.633,11.386,11.35,11.386h3.805V44.44H61.771L61.771,44.44z M1.642,32.327c0,12.344,8.305,20.551,20.781,20.551  l2.878-4.336l-2.878-4.302c-7.545,0-11.913-4.367-11.913-11.945c0-8.339,5.196-12.772,14.958-12.772c1.72,0,4.301,0.199,5.461,0.398  V52.88h8.801V12.638c-2.58-0.762-8.735-1.521-12.441-1.521C10.908,11.116,1.642,18.792,1.642,32.327z M108.268,32.327  c0,12.574,8.537,20.551,22.004,20.551V44.24c-8.57,0-13.137-4.136-13.137-11.945c0-8.339,5.195-12.772,14.959-12.772  c1.719,0,4.301,0.199,5.461,0.398v30.708l4.402,2.549l4.4-2.549V12.638c-2.58-0.762-8.734-1.521-12.441-1.521  C117.533,11.116,108.268,18.792,108.268,32.327z M79.971,23.491c0-2.87,2.393-3.938,9.896-3.938c3.396,0,7.703,0.361,10.521,0.861  v-8.438c-2.629-0.533-6.895-0.895-10.225-0.895c-13.059,0-19.028,4.203-19.028,12.312c0,7.378,4.169,10.756,15.753,12.938  c5.658,1.06,7.346,2.186,7.346,4.898c0,2.218-1.621,3.211-5.293,3.211H73.916l-2.846,4.202l2.846,4.235h15.651  c8.406,0,13.502-4.634,13.502-12.277c0-6.916-4.168-10.392-15.025-12.441C81.793,26.967,79.971,25.922,79.971,23.491z"/>
</svg>
